HIERARCHY
ROOT Hip
{
    OFFSET 0.0 0.0 0.0
    CHANNELS 6 Xposition Yposition Zposition Zrotation Xrotation Yrotation
    JOINT RightHip
    {
        OFFSET -6.5048438493382275 0.0 0.0
        CHANNELS 3 Zrotation Xrotation Yrotation
        JOINT RightKnee
        {
            OFFSET 0.0 0.0 -22.918288332674482
            CHANNELS 3 Zrotation Xrotation Yrotation
            JOINT RightAnkle
            {
                OFFSET 0.0 0.0 -28.074050074747056
                CHANNELS 3 Zrotation Xrotation Yrotation
                End Site
                {
                    OFFSET 0.0 -11.229620029898822 0.0
                }
            }
        }
    }
    JOINT LeftHip
    {
        OFFSET 6.5048438493382275 0.0 0.0
        CHANNELS 3 Zrotation Xrotation Yrotation
        JOINT LeftKnee
        {
            OFFSET 0.0 0.0 -22.918288332674482
            CHANNELS 3 Zrotation Xrotation Yrotation
            JOINT LeftAnkle
            {
                OFFSET 0.0 0.0 -28.074050074747056
                CHANNELS 3 Zrotation Xrotation Yrotation
                End Site
                {
                    OFFSET 0.0 -11.229620029898822 0.0
                }
            }
        }
    }
    JOINT Spine
    {
        OFFSET 0.0 0.0 18.9069506850104
        CHANNELS 3 Zrotation Xrotation Yrotation
        JOINT Thorax
        {
            OFFSET 0.0 0.0 22.18817311635927
            CHANNELS 3 Zrotation Xrotation Yrotation
            JOINT Neck
            {
                OFFSET 0.0 0.0 2.9193518515498713
                CHANNELS 3 Zrotation Xrotation Yrotation
                JOINT Head
                {
                    OFFSET 0.0 0.0 9.008971225794339
                    CHANNELS 3 Zrotation Xrotation Yrotation
                    End Site
                    {
                        OFFSET -3.603588490317735 0.0 0.0
                    }
                }
            }
            JOINT LeftShoulder
            {
                OFFSET 10.808036129924197 0.0 0.0
                CHANNELS 3 Zrotation Xrotation Yrotation
                JOINT LeftElbow
                {
                    OFFSET 21.433674900611642 0.0 0.0
                    CHANNELS 3 Zrotation Xrotation Yrotation
                    JOINT LeftWrist
                    {
                        OFFSET 12.022258419397348 0.0 0.0
                        CHANNELS 3 Zrotation Xrotation Yrotation
                        End Site
                        {
                            OFFSET 4.808903367758939 0.0 0.0
                        }
                    }
                }
            }
            JOINT RightShoulder
            {
                OFFSET -10.808036129924197 0.0 0.0
                CHANNELS 3 Zrotation Xrotation Yrotation
                JOINT RightElbow
                {
                    OFFSET -21.433674900611642 0.0 0.0
                    CHANNELS 3 Zrotation Xrotation Yrotation
                    JOINT RightWrist
                    {
                        OFFSET -12.022258419397348 0.0 0.0
                        CHANNELS 3 Zrotation Xrotation Yrotation
                        End Site
                        {
                            OFFSET -4.808903367758939 0.0 0.0
                        }
                    }
                }
            }
            JOINT Nose
            {
                OFFSET 0.0 0.0 8.69212130950017
                CHANNELS 3 Zrotation Xrotation Yrotation
                End Site
                {
                    OFFSET -3.4768485238000677 0.0 0.0
                }
            }
        }
    }
}
MOTION
Frames: 9
Frame Time: 0.03333333333333333
16.207460178152786 41.34991679084888 8.158207694262789 -21.71407314573892 0.1776457569544576 0.21721862462376992 -2.786083153401403 -12.470580324696979 9.087653972356945 -0.6372170210395418 22.813313395917234 -13.987127752664039 0.0 0.0 -3.975693351829396e-16 -0.008813025223052193 -10.162253607552508 -7.470543733117676 -4.2355181176102175 21.175168842826725 15.612250865550756 0.0 0.0 0.0 6.37037753739286e-15 3.0220614967782042 -2.674684049914225e-16 1.7663763612279708 -0.015871775716668497 1.0913282644768718 0.06215322024556662 -11.58765302044693 24.15616568510948 -3.4483642953516864e-33 -7.951386703658792e-16 -4.969616689786745e-16 -88.4457458225471 -7.316560619926792 6.700210711862938 7.111045071393094e-15 1.1259840813015864e-16 -51.31577706013976 0.0 0.0 0.0 85.08558735976351 -26.613558273894867 -7.685637128985158 -7.303987416331532e-16 1.564537547204839e-14 53.27076239725643 0.0 0.0 0.0 0.0 0.0 0.0
16.549428894986075 42.222377856968954 7.961209233027648 -22.434056824702385 0.11703029835571964 2.848482595534841 1.6582538179640507 -14.9649121591435 11.336421690893745 -7.290165700888516 26.936482922818843 -14.121083846923273 0.0 0.0 3.975693351829396e-16 1.4788929312998276 -8.593305383826872 -5.687487389602089 -3.810160981571947 18.231583773488005 13.300542913050954 0.0 0.0 -3.975693351829396e-16 7.199002815324282e-18 2.763678444230867 -2.984373979991099e-16 2.6620346886905217 -0.0008997880265512295 0.06094021820041962 -0.458291770225474 -13.823824450050646 24.885196136276644 0.0 0.0 -2.3854160110976376e-15 -84.17725985474094 -20.71729853039409 7.304402908923888 6.0986683699303756e-15 -1.692678181848382e-14 -50.37212319645988 0.0 -3.1805546814635168e-15 0.0 84.95569652257926 -28.22590153164891 -7.49976791334861 -1.687866183397525e-14 -8.904166757106986e-15 55.62686623762566 0.0 0.0 0.0 0.0 0.0 9.93923337957349e-17
16.653286991120748 42.48734988750423 7.90137953481781 -24.50019689251759 -0.5499524645030112 5.940512573812926 11.045387402591615 -16.74839477571618 16.009731467832054 -22.068173256501673 35.387914470680094 -11.139130634766612 0.0 0.0 0.0 7.2375137540245404 -5.5032894402822725 -3.708705534977752 -8.617594031466723 12.978974875539814 9.409579194896182 0.0 0.0 -3.975693351829396e-16 2.9192319453051927e-17 2.445698080565254 -1.367579049480334e-15 4.833686825826278 0.01110691947438499 -1.942330358737758 -1.099072941806387 -13.945820482346237 25.586672787048425 0.0 0.0 -6.7586786981099735e-15 -73.16067076717282 -38.21844296982543 9.615605581843642 1.2650395862001906e-14 -3.4551790004132125e-15 -58.625475037913944 0.0 0.0 0.0 84.39553139807018 -32.153303861718726 -7.772622196078334 1.49999930882832e-14 2.8214742786319736e-16 66.16596083251066 0.0 0.0 -3.1805546814635176e-15 3.1805546814635168e-15 -1.1034765745125397e-32 -3.975693351829396e-16
16.91861721778192 43.164284007590844 7.748530330202103 -25.65107252506464 -1.5014289048795972 7.695199984241491 18.777936147622977 -16.0687586355787 18.697530888840326 -41.52781920432494 40.020265374832036 -3.726218451765661 0.0 0.0 0.0 11.376368039688483 -2.610859570237425 -1.6866741040186388 -13.295535777782227 7.639425949548979 6.233951508436613 0.0 0.0 1.987846675914698e-16 -6.309441221630516e-17 3.0114327062579735 2.4003267775012364e-15 6.011195225173932 0.000627636713109067 -3.754358789096632 -2.360993869207275 -12.611958534913358 27.481921770780158 -6.207055731633036e-33 7.951386703658792e-16 8.945310041616142e-16 -61.55471274066926 -59.7743333708452 9.756694921161607 -1.236805521067982e-14 -1.1397866259581246e-15 -69.08062186022704 0.0 0.0 -3.1805546814635168e-15 83.28935787060135 -30.078818890910714 -6.75624076446326 -4.491777300403987e-15 2.3620509548792575e-16 83.97962096138816 -3.1805546814635168e-15 0.0 0.0 0.0 0.0 -9.93923337957349e-17
17.057908163250143 43.519655481067815 7.668288774262927 -24.796241161181904 -1.6814362830180472 8.580377419965522 22.94082022216517 -13.930519366371293 17.124863228983507 -59.144172471722115 37.55920061318534 5.872820412856893 6.3611093629270335e-15 -1.987846675914698e-16 1.1034765745125397e-32 12.553938416735466 -1.9285224188233492 -1.090801899516429 -16.339603992953272 5.146237658990389 4.586634150061573 1.3793457181406746e-33 3.975693351829396e-16 -3.975693351829396e-16 3.1428311717068733e-15 3.099203461090824 1.4374812574545474e-15 3.3054359051003326 0.09281742050367432 -5.1835093857914885 -0.7274392061674023 -9.627757347089679 32.86386449126152 0.0 0.0 2.857529596627378e-16 -50.48736309876624 -69.68087995995268 10.569195481136385 -1.333731007152882e-14 -9.888134317675258e-15 -73.49585316308172 1.590277340731758e-15 6.361109362927032e-15 -8.827812596100317e-32 83.79521163487763 -31.113989452266424 -4.580341289498449 1.2772086436558412e-14 -1.121445222022628e-15 110.47433395281085 1.5902773407317582e-15 -4.4139062980501586e-32 -3.1805546814635164e-15 0.0 0.0 -1.987846675914698e-16
17.0250732829549 43.4358842082637 7.687204015846724 -25.0760460126697 -2.0399122069834146 8.686535800404968 27.191754652628337 -12.757165164636678 15.920746676883704 -74.29878812368129 36.079760510854676 13.893711644719565 0.0 0.0 0.0 13.003535728103353 -1.7642553307906863 -0.22823859849313646 -16.172963262949608 5.143722358588428 4.248480252624864 0.0 0.0 -5.963540027744094e-16 -3.248199702188758e-15 3.744522138626056 2.017396324562081e-15 3.4695952173558062 0.03232927845996429 -5.078981058906726 -0.25027411746408634 -8.356359335864042 36.09692679672291 3.1805546814635164e-15 1.5902773407317582e-15 -4.969616689786745e-16 -47.98411329839179 -74.6035510768049 8.5107185266683 1.1088068868449272e-14 2.1836485067409937e-15 -79.1390384332754 -7.951386703658792e-16 0.0 0.0 79.74378695317463 -31.533718709792968 -3.4146771328257057 3.217555202570342e-15 3.718968820643247e-15 126.34147053988663 0.0 0.0 -2.782985346280577e-15 0.0 0.0 9.93923337957349e-17
17.173710956851785 43.8151018882742 7.60157807523318 -25.51867390339321 -2.188929942086046 8.31122473125154 31.007294925616872 -11.27521768873283 14.147344411491986 -69.50809638861554 29.644005739862575 7.3380770296163655 0.0 -7.951386703658792e-16 0.0 11.652774563682424 -1.8237970774220886 1.096362552587785 -12.703139256415795 5.416360017350871 3.9993000031791617 0.0 0.0 2.1866313435061676e-15 5.823011607365578e-17 4.319992054419679 -1.5438728333637373e-15 1.575107591917231 0.22306664316333222 -5.00079319854538 2.185012753532606 -7.890003620622217 43.56000110012559 0.0 0.0 -4.969616689786745e-16 -52.237855362875166 -76.2907148503095 -1.8561265010927301 -5.142166231717764e-15 -4.753595316765027e-15 -81.45768386978614 -3.975693351829396e-16 1.3793457181406746e-33 -3.975693351829396e-16 76.04160031864458 -34.32837670069796 -3.2690112313733635 1.7798429204590235e-16 -1.0413353977582262e-14 134.6996444765912 -4.770832022195275e-15 3.975693351829398e-16 -3.578124016646457e-15 0.0 0.0 0.0
16.95616058436371 43.26006799022236 7.726902663453263 -26.14252579054418 -2.258105542333802 8.188625090199187 31.001689113652 -10.700559699597198 13.256341607079142 -56.678256247354334 26.010853363640514 0.49512192406477756 0.0 0.0 0.0 11.050077663468349 -1.7107336412539926 1.4224327509822983 -10.617864702194698 5.499865536282248 3.976349903838073 0.0 0.0 3.9756933518293955e-16 3.2565358473725913e-15 4.669021569343136 -1.7989651735444994e-15 1.4699064857991029 0.22644468941457732 -4.800322917275192 2.698520305791123 -7.216276541386526 45.9665927525656 0.0 0.0 2.7829853462805764e-15 -49.53078671863021 -74.14495705264052 -3.919045666138639 -1.1007572181742905e-14 -1.3057114422524119e-14 -85.7681265041396 -7.951386703658792e-16 -6.896728590703373e-33 9.93923337957349e-16 66.79093525391987 -40.96580280510141 -1.7817770204311005 -1.805463646189645e-15 4.1197278048248e-15 137.33070707963793 -3.1805546814635168e-15 -6.620859447075238e-32 2.3854160110976376e-15 0.0 0.0 -9.93923337957349e-17
17.138609106441187 43.72554691928284 7.6217992538878505 -26.90137478576564 -2.545418413595456 8.213713356539733 28.86183664970293 -10.432920234064234 12.939967072183695 -43.28019768057174 24.66484208012321 -5.0677567812559365 0.0 0.0 0.0 11.7156291432316 -1.4190528993590368 1.329080187511347 -11.489494665448396 5.398083126150414 4.322486507845899 0.0 0.0 1.987846675914698e-16 -6.961790923659245e-17 4.848523571324222 1.6443899718138451e-15 1.979877654865748 0.24688194782774142 -4.83377670254138 2.674852675753098 -7.019521956983678 44.48215965805366 0.0 0.0 -1.1927080055488188e-15 -49.929888269803286 -71.35026662298361 -8.445539933629242 -7.392435288224168e-15 -1.1353878304263968e-14 -87.27180038143464 -1.391492673140289e-15 1.4483130040477084e-32 -1.1927080055488192e-15 57.115635598310824 -45.17321687408571 -0.1040842544234379 -5.767102199474366e-15 9.149095620136089e-15 136.50503823490752 1.5902773407317584e-15 2.2069531490250793e-32 1.5902773407317584e-15 0.0 0.0 -9.93923337957349e-17
